Coordinates
version=1
nRows=9
nColumns=36
inDegrees=yes

Units are S.I. units (second, meters, Newtons, ...)
Angles are in degrees.

endheader
time	pelvis_tilt	pelvis_list	pelvis_rotation	pelvis_tx	pelvis_ty	pelvis_tz	hip_flexion_r	hip_adduction_r	hip_rotation_r	knee_angle_r	ankle_angle_r	subtalar_angle_r	hip_flexion_l	hip_adduction_l	hip_rotation_l	knee_angle_l	ankle_angle_l	subtalar_angle_l	lumbar_extension	lumbar_bending	lumbar_rotation	arm_flex_r	arm_add_r	arm_rot_r	elbow_flex_r	pro_sup_r	wrist_flex_r	wrist_dev_r	arm_flex_l	arm_add_l	arm_rot_l	elbow_flex_l	pro_sup_l	wrist_flex_l	wrist_dev_l
      1.44000000	     -1.17182763	      6.24585749	     -0.48279891	     -0.53274411	      0.91043229	     -0.26580455	     11.67538541	     -3.89357351	     -0.45996190	    -66.35458971	     -8.20195847	    -11.87920964	     19.76134133	     10.98300216	      1.99112753	    -26.72548708	      4.47966439	      1.02779361	     -4.70078813	     -5.49801017	     -0.47417099	     -1.69492889	    -18.42580540	     10.22516520	     24.21366059	     86.51662706	      0.00000000	      0.00000000	     -2.59141957	    -14.43292308	     25.59921363	     12.26551588	     86.51662706	      0.00000000	      0.00000000
      1.45000000	     -1.20509185	      6.02792103	     -0.75625749	     -0.52133379	      0.91230710	     -0.26520217	     13.63967998	     -3.54424154	      0.01587204	    -67.18256768	     -7.50976390	    -11.86529396	     18.70067047	     10.60565287	      1.61588986	    -26.23402923	      5.13885409	      1.63083054	     -4.80717216	     -5.19416477	     -0.68084707	     -1.64907032	    -18.39020306	     11.09006484	     22.99045508	     86.51662706	      0.00000000	      0.00000000	     -2.13817541	    -14.59112601	     25.07777915	     13.29905672	     86.51662706	      0.00000000	      0.00000000
      1.46000000	     -1.24014739	      5.78647291	     -0.97785781	     -0.50986372	      0.91420359	     -0.26461222	     15.50466718	     -3.17280213	      0.41696055	    -67.63635987	     -6.74193661	    -11.39782140	     17.60143758	     10.24750626	      1.45224322	    -25.69063193	      5.73906388	      2.08817877	     -4.90271976	     -4.85765660	     -0.91120152	     -1.67192979	    -18.34996549	     11.87310742	     21.85203185	     86.51662706	      0.00000000	      0.00000000	     -1.68141517	    -14.76088306	     24.62024918	     14.36375658	     86.51662706	      0.00000000	      0.00000000
      1.47000000	     -1.27809486	      5.53216806	     -1.13522228	     -0.49833109	      0.91606524	     -0.26405914	     17.26233742	     -2.81193714	      0.72164097	    -67.72821682	     -5.90057138	    -10.61677872	     16.47230206	      9.92074125	      1.49929500	    -25.10264329	      6.28607613	      2.39554585	     -4.98305971	     -4.50449316	     -1.17209307	     -1.77108665	    -18.30050737	     12.54800256	     20.80959814	     86.51662706	      0.00000000	      0.00000000	     -1.22075522	    -14.94763737	     24.22344160	     15.45974776	     86.51662706	      0.00000000	      0.00000000
      1.48000000	     -1.31965062	      5.27244335	     -1.22163963	     -0.48676252	      0.91783920	     -0.26357409	     18.90686798	     -2.48746435	      0.91179920	    -67.46986384	     -5.00317847	     -9.67935273	     15.32461503	      9.63014559	      1.73103628	    -24.47882082	      6.78378187	      2.56164353	     -5.04579800	     -4.14534655	     -1.46953499	     -1.94476025	    -18.24132472	     13.09728562	     19.86757764	     86.51662706	      0.00000000	      0.00000000	     -0.75569648	    -15.15476647	     23.88137103	     16.58613195	     86.51662706	      0.00000000	      0.00000000
      1.49000000	     -1.36476367	      5.01304131	     -1.23621505	     -0.47517425	      0.91948472	     -0.26317206	     20.43214977	     -2.21586103	      0.97755651	    -66.87108226	     -4.08455495	     -8.74050402	     14.16975839	      9.37492938	      2.10332015	    -23.82941315	      7.23654264	      2.60670170	     -5.09069731	     -3.78732107	     -1.80744066	     -2.18400704	    -18.17470844	     13.51252520	     19.02412866	     86.51662706	      0.00000000	      0.00000000	     -0.28589516	    -15.38374255	     23.58636835	     17.74057609	     86.51662706	      0.00000000	      0.00000000
      1.50000000	     -1.41164182	      4.75875669	     -1.18330318	     -0.46355661	      0.92097001	     -0.26283919	     21.83106639	     -2.00430626	      0.92031747	    -65.93967955	     -3.19206533	     -7.93666373	     13.01530908	      9.15005265	      2.56331966	    -23.16481380	      7.65113879	      2.55975219	     -5.11990909	     -3.43597822	     -2.18641181	     -2.47565417	    -18.10394069	     13.79362248	     18.27242931	     86.51662706	      0.00000000	      0.00000000	      0.18877295	    -15.63447022	     23.33010896	     18.91922344	     86.51662706	      0.00000000	      0.00000000
      1.51000000	     -1.45627960	      4.51375963	     -1.07186131	     -0.45189532	      0.92226807	     -0.26254692	     23.09618706	     -1.85231198	      0.75305331	    -64.68247158	     -2.37656507	     -7.37341419	     11.86186991	      8.94741523	      3.05926884	    -22.49325222	      8.03761490	      2.45492501	     -5.13824978	     -3.09674852	     -2.60293506	     -2.80522644	    -18.03164372	     13.94742590	     17.60238420	     86.51662706	      0.00000000	      0.00000000	      0.66832589	    -15.90564500	     23.10442823	     20.11687772	     86.51662706	      0.00000000	      0.00000000
      1.52000000	     -1.49308779	      4.28179002	     -0.91470389	     -0.44019124	      0.92335881	     -0.26227175	     24.22063208	     -1.75397352	      0.49770270	    -63.10673404	     -1.68197944	     -7.11721056	     10.70224738	      8.75762281	      3.54844606	    -21.81853848	      8.40877701	      2.32721382	     -5.15312877	     -2.77531718	     -3.04931455	     -3.15926815	    -17.95880986	     13.98593913	     17.00238470	     86.51662706	      0.00000000	      0.00000000	      1.15281460	    -16.19507345	     22.90186757	     21.32736203	     86.51662706	      0.00000000	      0.00000000
